<svg xmlns="http://www.w3.org/2000/svg" width="64" height="64" xml:space="preserve"><path fill-rule="evenodd" clip-rule="evenodd" fill="#288EF7" d="M42.824 58.226a1.727 1.727 0 0 1-.175.062c-.017.005-.031.013-.046.018l-.002-.003a1.97 1.97 0 0 1-.602.104 2 2 0 0 1-2-2c0-.885.577-1.624 1.37-1.891l-.013-.036C52.213 50.901 60 41.307 60 30 60 15.642 47.465 4 32 4 16.536 4 4 15.642 4 30c0 7.998 3.908 15.127 10.031 19.891.032.039.044.083.088.117A4.83 4.83 0 0 1 16 53.835v5.884l6.795-4.633.008.01A1.98 1.98 0 0 1 24 54.689a2 2 0 0 1 2 2c0 .764-.434 1.421-1.064 1.755l-6.984 4.89c-.61.42-1.35.667-2.147.667A3.807 3.807 0 0 1 12 60.196v-6.788C4.686 47.913 0 39.472 0 30 0 13.431 14.327 0 32 0s32 13.431 32 30c0 13.004-8.834 24.063-21.176 28.226zM14.43 37.161c-.677-.909-.515-2.211.363-2.909l12.312-9.82a1.964 1.964 0 0 1 2.816.376l6.129 8.211 10.725-8.553a1.965 1.965 0 0 1 2.817.373c.677.909.514 2.211-.363 2.909l-12.315 9.82a1.962 1.962 0 0 1-2.814-.376l-6.131-8.211-10.725 8.553a1.961 1.961 0 0 1-2.814-.373zM34 56a2 2 0 1 1 .001 3.999A2 2 0 0 1 34 56z"/></svg>